PathFileType	4	(X/Y/Z)	 s07c0203.trc
DataRate	CameraRate	NumFrames	NumMarkers	Units	OrigDataRate	OrigDataStartFrame	OrigNumFrames
200	200	4	48	mm	200	751	2000
Frame#	Time	racr			lacr			c7			jug			rlel			rdr			llel			ldr			s2			lic			ric			lasi			rasi			rpsi			lpsi			rgt			lgt			rth1			rth2			rth3			rth4			rlfc			rmfc			rsh1			rsh2			rsh3			rsh4			rlmal			rcal			rtoe			rmt5			lth1			lth2			lth4			lth3			llfc			lmfc			lsh1			lsh2			lsh3			lsh4			llmal			lcal			ltoe			lmt5			SBIKE			LBIKE			RBIKE			
		X1	Y1	Z1	X2	Y2	Z2	X3	Y3	Z3	X4	Y4	Z4	X5	Y5	Z5	X6	Y6	Z6	X7	Y7	Z7	X8	Y8	Z8	X9	Y9	Z9	X10	Y10	Z10	X11	Y11	Z11	X12	Y12	Z12	X13	Y13	Z13	X14	Y14	Z14	X15	Y15	Z15	X16	Y16	Z16	X17	Y17	Z17	X18	Y18	Z18	X19	Y19	Z19	X20	Y20	Z20	X21	Y21	Z21	X22	Y22	Z22	X23	Y23	Z23	X24	Y24	Z24	X25	Y25	Z25	X26	Y26	Z26	X27	Y27	Z27	X28	Y28	Z28	X29	Y29	Z29	X30	Y30	Z30	X31	Y31	Z31	X32	Y32	Z32	X33	Y33	Z33	X34	Y34	Z34	X35	Y35	Z35	X36	Y36	Z36	X37	Y37	Z37	X38	Y38	Z38	X39	Y39	Z39	X40	Y40	Z40	X41	Y41	Z41	X42	Y42	Z42	X43	Y43	Z43	X44	Y44	Z44	X45	Y45	Z45	X46	Y46	Z46	X47	Y47	Z47	X48	Y48	Z48	
751	3.7550	470.968961	1405.610476	-60.164475	486.539026	1402.631621	-347.287251	453.507281	1459.235789	-206.245119	395.715887	1313.523492	-214.865356	445.312267	1074.173058	71.246525	691.579348	949.926132	-41.098653	478.391809	1114.435576	-543.336388	696.363452	938.598421	-432.990990	-109.377648	1200.988538	-248.602811	43.282277	1267.931517	-391.577330	45.248317	1241.057660	-95.063140	76.002964	1189.371307	-369.918220	75.988736	1199.356348	-118.717598	-84.615930	1240.449241	-196.736002	-75.377845	1254.670294	-304.086778	21.007476	1127.365807	-58.081349	-5.859664	1104.293954	-420.675705	170.965345	1077.624821	-67.595221	256.487634	1062.801776	-82.446123	325.516123	1011.808707	-83.587582	266.808065	1092.329612	-101.805491	429.454347	927.892776	-122.005185	414.013962	911.838782	-228.003798	337.369940	826.814995	-95.149471	293.854650	750.497230	-103.692837	219.650639	704.853035	-94.146522	306.092073	738.086127	-141.671569	121.613437	612.855171	-85.478615	51.543675	640.288834	-116.662617	189.030340	381.868785	-123.303106	124.139157	435.777513	-53.831081	52.046963	990.455435	-429.591729	116.167310	929.871326	-433.601342	147.344146	948.765949	-428.787323	142.039070	845.101415	-426.053345	232.597216	695.841343	-394.212217	220.752661	675.905528	-302.650771	199.827842	552.786179	-418.450299	207.239313	469.549385	-398.203640	171.804931	385.931908	-404.172919	209.182891	472.562100	-355.787900	143.010323	251.353304	-398.589531	77.997604	206.390052	-365.992497	367.930055	216.757167	-356.129886	299.980333	175.422492	-416.592185	-256.981467	965.468713	-234.755960	-75.496028	83.310099	-437.362043	-82.074617	80.193947	-39.891062	
752	3.7600	468.348263	1407.535246	-56.973975	488.682556	1400.730021	-343.453188	453.706739	1458.420260	-203.971382	395.479231	1313.072677	-211.733771	444.605526	1074.880845	70.678575	691.997631	950.449240	-40.749975	478.800966	1114.908407	-543.556674	696.447651	939.033337	-432.985812	-108.646950	1200.788449	-251.847402	45.330875	1264.792298	-390.930572	43.442029	1242.820549	-96.807638	78.385318	1187.472643	-370.491403	74.866286	1200.523365	-119.657959	-84.575084	1240.392672	-200.299937	-73.974000	1253.990534	-307.603937	19.794276	1130.034623	-58.990847	-4.071789	1102.513619	-421.590537	170.320952	1082.743817	-68.009209	256.201409	1069.512755	-82.553975	326.119831	1019.558399	-83.633729	266.064102	1099.103575	-102.203093	432.128506	937.497682	-121.303549	417.482843	921.220246	-227.451149	341.373870	835.924113	-94.807324	298.087568	759.524203	-103.781416	224.254514	713.403392	-94.334106	310.741834	746.921709	-141.519973	126.132277	620.161217	-85.826473	55.329115	645.475245	-116.575748	203.296983	394.499517	-121.797727	133.741253	443.012296	-54.015561	51.799467	988.504193	-430.562064	114.782332	926.712729	-434.556367	146.259151	945.082906	-429.336107	138.999999	841.420239	-427.150145	227.012803	690.885792	-394.279112	214.720375	670.896927	-302.831643	193.233735	548.072810	-418.326983	200.335893	464.885063	-398.300252	164.669163	381.655906	-404.243780	202.333742	467.879874	-355.929297	134.792251	247.017760	-398.651906	69.444660	202.947742	-366.098084	359.509793	209.709361	-356.016275	283.434309	175.183674	-422.853572	-257.014918	965.468470	-234.795569	-75.509983	83.302384	-437.375547	-82.096882	80.204091	-39.889073	
753	3.7650	465.852900	1409.270324	-54.043068	490.701066	1398.640496	-339.807831	454.010014	1457.742823	-201.867628	395.300508	1312.458958	-208.666537	444.042023	1075.558876	70.061071	692.341986	950.791558	-40.424774	479.171657	1115.214655	-543.798867	696.621711	939.569882	-433.065573	-108.136504	1200.731257	-254.863205	48.235865	1262.770637	-392.864974	41.545861	1244.712212	-98.584044	80.584380	1185.734346	-371.115331	73.686467	1201.566862	-120.523799	-84.545597	1241.018337	-204.684697	-72.714724	1253.428410	-311.369368	18.355476	1132.697638	-59.836796	-2.398969	1100.975738	-422.516987	169.537176	1088.109664	-67.811113	255.581568	1076.146513	-82.487902	326.136598	1028.272590	-81.938560	265.046892	1105.743550	-102.499326	434.349022	946.813140	-120.486337	420.535960	930.425204	-226.850963	345.042762	844.835646	-94.433970	302.267384	767.981196	-103.507837	228.798289	721.436152	-94.276080	315.225470	755.183410	-141.290086	130.506611	626.779269	-85.964722	59.178303	649.758911	-116.470879	213.638234	402.901749	-122.040627	143.332043	449.549238	-54.217198	51.556948	986.860854	-431.478312	113.523691	924.051818	-435.494738	145.303167	941.776565	-429.825305	136.301478	838.343963	-428.356682	221.938972	686.542260	-394.413781	209.215420	666.767619	-302.915793	187.443221	544.092462	-418.459283	193.702473	460.842249	-398.303062	157.396844	377.920204	-404.348611	195.600386	463.863298	-355.901999	126.475563	243.508497	-398.807765	60.644174	200.424524	-366.248132	350.781120	203.196014	-355.963060	274.246747	169.749780	-422.898978	-257.043902	965.460730	-234.823494	-75.511292	83.296155	-437.377860	-82.034930	80.084307	-39.934783	
754	3.7700	463.496523	1410.847368	-51.424662	492.566177	1396.547325	-336.398086	454.261364	1456.999147	-199.818282	395.183720	1311.752626	-205.612396	443.620700	1076.384622	69.652594	692.589823	950.910953	-40.179433	479.545867	1115.430170	-544.059001	696.766340	940.145844	-432.959163	-107.840111	1200.481332	-257.589926	46.169645	1256.184481	-381.627739	39.485971	1246.278282	-100.112317	82.391186	1183.992769	-371.499918	72.322034	1202.629815	-121.319076	-84.676603	1240.964289	-207.919623	-71.477055	1252.623945	-314.362621	16.755528	1135.281245	-60.652935	-0.918751	1099.576372	-423.295792	168.374371	1093.282951	-67.613013	254.690386	1082.425822	-82.292405	326.316811	1036.331967	-81.872334	263.621056	1112.290288	-102.513073	435.869586	955.730669	-120.178120	423.333480	939.028027	-226.682786	348.360111	853.297695	-93.930939	306.249513	775.980272	-103.022850	233.186204	728.882943	-94.070443	319.735723	763.525905	-140.367058	135.048859	632.614049	-85.889495	63.222677	653.231170	-116.234365	224.971181	410.895142	-122.180025	153.059927	455.385165	-54.303807	51.333571	985.480989	-432.286864	112.436668	921.779494	-436.443020	144.470518	939.081777	-430.244910	133.919846	835.654841	-429.419471	217.397860	682.823007	-394.594267	203.468824	663.477184	-303.084311	181.989100	540.979981	-418.554053	187.271656	457.628345	-398.292281	150.594016	374.859180	-404.162246	189.125216	460.560607	-355.881851	118.047350	240.896470	-398.943025	51.717580	198.672152	-366.301679	341.821682	197.209724	-355.947657	264.842768	164.978615	-422.779882	-257.076407	965.452142	-234.824602	-75.529381	83.299442	-437.382848	-82.099244	80.194825	-39.890844	
